<?xml version="1.0" encoding="utf-8"?>
<!-- Generator: Adobe Illustrator 27.5.0, SVG Export Plug-In . SVG Version: 6.00 Build 0)  -->
<svg version="1.1" id="Layer_1" xmlns="http://www.w3.org/2000/svg" xmlns:xlink="http://www.w3.org/1999/xlink" x="0px" y="0px"
	 viewBox="0 0 900 400" style="enable-background:new 0 0 900 300;" xml:space="preserve">
<style type="text/css">
	.st0{fill:#FFFFFF;}
</style>
<g id="Layer_1_00000044154425924681909000000009564474856475570580_">
	<g transform="matrix( 4.29949951171875, 0, 0, 4.29949951171875, 400,150) ">
		<g transform="matrix( 0.14117431640625, 0, 0, 0.14117431640625, 12.45,17.75) ">
			<g transform="matrix( 1, 0, 0, 1, 0,0) ">
				<g>
					<g id="letter_30_Layer1_0_FILL">
						<path class="st0" d="M-95.1-44.5c-4.5,4.3-6.9,9.5-7.2,15.7c-1.3,40.9-1.2,72.3,0.4,94c1.6,21.5,4.7,35.8,9.5,42.9
							c5.1,7.4,13,12.5,23.9,15.2c11.8,2.9,26.7,2.9,44.6-0.1c6.1-1,10.9-4.1,14.6-9.2c3.6-5,4.9-10.6,3.9-16.8
							c-1-6.1-4-11-9.1-14.6c-5-3.6-10.6-4.9-16.8-3.9c-13.2,2.2-21.5,3.1-24.8,2.7c-2.9-7.5-3.3-43.7-1.2-108.8
							c0.2-6.2-1.8-11.5-6.1-16.1c-4.3-4.5-9.5-6.9-15.7-7.2C-85.2-50.7-90.5-48.7-95.1-44.5z"/>
					</g>
				</g>
			</g>
		</g>
		<g transform="matrix( 0.14117431640625, 0, 0, 0.14117431640625, 28.1,17.75) ">
			<g transform="matrix( 1, 0, 0, 1, 0,0) ">
				<g>
					<g id="letter_30_Layer1_0_FILL_00000070083208540259198100000008717525291714230688_">
						<path class="st0" d="M-95.1-44.5c-4.5,4.3-6.9,9.5-7.2,15.7c-1.3,40.9-1.2,72.3,0.4,94c1.6,21.5,4.7,35.8,9.5,42.9
							c5.1,7.4,13,12.5,23.9,15.2c11.8,2.9,26.7,2.9,44.6-0.1c6.1-1,10.9-4.1,14.6-9.2c3.6-5,4.9-10.6,3.9-16.8
							c-1-6.1-4-11-9.1-14.6c-5-3.6-10.6-4.9-16.8-3.9c-13.2,2.2-21.5,3.1-24.8,2.7c-2.9-7.5-3.3-43.7-1.2-108.8
							c0.2-6.2-1.8-11.5-6.1-16.1c-4.3-4.5-9.5-6.9-15.7-7.2C-85.2-50.7-90.5-48.7-95.1-44.5z"/>
					</g>
				</g>
			</g>
		</g>
		<g transform="matrix( 0.14117431640625, 0, 0, 0.14117431640625, 46.5,17.55) ">
			<g transform="matrix( 1, 0, 0, 1, 0,0) ">
				<g>
					<g id="letter_50_Layer1_0_FILL">
						<path class="st0" d="M-53.1-106.8c1-14.5-0.6-25-4.6-31.5s-9.2-10.2-15.7-11.1c-6.4-0.9-12.2,0.6-17.4,4.5s-8.2,9.1-9.2,15.5
							c-4.8,33.6-7,75.2-6.5,124.7v0.1c0.2,19.5,1.4,39.2,3.4,59c2.1,19.8,4.3,33.8,6.6,41.8c2.3,8,5.7,14,10.1,18.1
							s18.2,7.5,41.3,10.2s55.8,3.2,98.2,1.4c6.5-0.3,11.9-2.8,16.3-7.6c4.4-4.8,6.2-11,5.4-18.5c-1-7.6-5.2-13.8-12.8-18.7
							c-7.6-4.9-26.1-5.8-55.4-2.6c-29.3,3.2-49.8,4-61.5,2.4c-4.7-41.4-5.8-79.4-3.4-114C-55.8-67.7-54-92.3-53.1-106.8z"/>
					</g>
				</g>
			</g>
		</g>
		<g transform="matrix( 0.14117431640625, 0, 0, 0.14117431640625, -11.9,17.7) ">
			<g transform="matrix( 1, 0, 0, 1, 0,0) ">
				<g>
					<g id="letter_32_Layer1_0_FILL">
						<path class="st0" d="M-90.4-14.3L-90.4-14.3c-12.4,18.9-17.3,40-14.6,63.5c2.8,23.9,12.6,43.1,29.4,57.6
							c17.9,15.7,38,21.7,60.3,18.1c15.6-2.4,27.5-6.4,35.5-11.8c8.1-5.4,12.6-11.3,13.7-17.6c1.1-6.3-0.1-12-3.7-17.2
							c-3.6-5.1-7.9-7.8-13-8c-5.1-0.2-10.8,1.3-17.1,4.4s-13.7,5-22.4,5.8l0,0C-31,81.7-38.9,79.2-46,73c-3-2.7-5.5-5.7-7.6-9
							c30-4.9,52.7-8.8,68.3-11.7s25.7-6.1,30.5-9.6c4.8-3.5,7.1-7.8,7.1-12.9c0-1.2,0-2.4-0.2-3.6c-2.9-23.8-12.7-43-29.4-57.5l0,0
							c-17.9-15.6-38-21.6-60.3-18l0,0C-59.4-46.1-77-34.4-90.4-14.3 M-6.9,2.5C-6.9,2.6-6.9,2.6-6.9,2.5c2.8,2.6,5.2,5.4,7.2,8.4
							C-18.1,13.4-37.3,16-57.3,19c1.2-2.9,2.7-5.8,4.5-8.5v0.1C-47.1,2-39.7-3.2-30.6-4.9C-21.8-6-13.9-3.6-6.9,2.5z"/>
					</g>
				</g>
			</g>
		</g>
		<g transform="matrix( -0.13348388671875, -0.045867919921875, -0.045867919921875, 0.13348388671875, -46.65,14.05) ">
			<g transform="matrix( 1, 0, 0, 1, 0,0) ">
				<g>
					<g id="letter_49_Layer1_0_FILL">
						<path class="st0" d="M-90.8-158.9c-4.3-4.9-9.6-7.5-16.1-7.9s-12.1,1.5-17,5.8c-4.9,4.3-7.4,14.2-7.5,29.7
							c-0.1,15.5,2.2,44,6.7,85.4c4.6,41.5,8.9,76.2,12.9,104c4,27.9,7.8,46.5,11.3,55.7c3.6,9.3,8.2,14.9,13.9,17
							c5.7,2.1,13.5,1.7,23.3-1.3c9.8-3,22.9-9.3,39.1-18.7l0,0C1.2,96.4,31.6,71,67.5,34.7c4.6-4.6,6.8-10.2,6.7-16.6
							c0-6.5-2.3-12-6.9-16.5C62.7-3,57.1-5.2,50.7-5.2c-6.5,0.1-12,2.4-16.5,6.9C1.9,34.2-25.3,57-47.6,70.2l0,0
							c-7,4.1-11.4,6.2-13.2,6.5c-2.6-6.2-5.6-18.3-9-36.1c-3.4-17.9-6.6-46.9-9.8-87c-3.2-40.1-4.8-67.7-4.8-82.7
							C-84.3-144.1-86.5-154.1-90.8-158.9 M-70.2,86.5c0,0.1,0,0.1-0.1,0.2l-0.4-0.2C-70.5,86.5-70.4,86.5-70.2,86.5z"/>
					</g>
				</g>
			</g>
		</g>
		<g transform="matrix( 0.14117431640625, 0, 0, 0.14117431640625, 67,17.55) ">
			<g transform="matrix( 1, 0, 0, 1, 0,0) ">
				<g>
					<g id="letter_48_Layer1_0_FILL">
						<path class="st0" d="M17.2-27.1c0-6.2-2.2-11.5-6.6-15.9s-9.7-6.6-15.9-6.6s-11.5,2.2-15.9,6.6s-6.6,9.7-6.6,15.9v130.2
							c0,6.2,2.2,11.5,6.6,15.9c4.4,4.4,9.7,6.6,15.9,6.6s11.5-2.2,15.9-6.6c4.4-4.4,6.6-9.7,6.6-15.9V-27.1 M17.3-88.8
							c0-3.3-0.6-6.4-1.7-9.3c-1.2-3.1-2.8-5.8-5-7.9c-4.4-4.4-9.7-6.6-15.9-6.6s-11.5,2.2-15.9,6.6c-4.3,4.3-6.5,9.9-6.6,16.9
							c-0.1,6.1,2.1,11.4,6.6,15.9c4.4,4.4,9.7,6.6,15.9,6.6s11.5-2.2,15.9-6.6C15.2-77.6,17.4-82.8,17.3-88.8z"/>
					</g>
				</g>
			</g>
		</g>
		<g transform="matrix( 0.13348388671875, -0.045867919921875, 0.045867919921875, 0.13348388671875, -62.15,14.05) ">
			<g transform="matrix( 1, 0, 0, 1, 0,0) ">
				<g>
					<g id="letter_49_Layer1_0_FILL_00000023961929371719763590000002610001925155158930_">
						<path class="st0" d="M-90.8-158.9c-4.3-4.9-9.6-7.5-16.1-7.9s-12.1,1.5-17,5.8c-4.9,4.3-7.4,14.2-7.5,29.7
							c-0.1,15.5,2.2,44,6.7,85.4c4.6,41.5,8.9,76.2,12.9,104c4,27.9,7.8,46.5,11.3,55.7c3.6,9.3,8.2,14.9,13.9,17
							c5.7,2.1,13.5,1.7,23.3-1.3c9.8-3,22.9-9.3,39.1-18.7l0,0C1.2,96.4,31.6,71,67.5,34.7c4.6-4.6,6.8-10.2,6.8-16.6
							c0-6.5-2.3-12-6.9-16.5C62.8-3,57.2-5.2,50.8-5.2c-6.5,0.1-12,2.4-16.5,6.9C1.9,34.2-25.3,57-47.5,70.2l0,0
							c-7,4.1-11.4,6.2-13.2,6.5c-2.6-6.2-5.6-18.3-9-36.1c-3.4-17.9-6.6-46.9-9.8-87c-3.2-40.1-4.8-67.7-4.8-82.7
							C-84.3-144.1-86.5-154.1-90.8-158.9 M-70.2,86.5c0,0.1,0,0.1-0.1,0.2l-0.4-0.2C-70.5,86.5-70.4,86.5-70.2,86.5z"/>
					</g>
				</g>
			</g>
		</g>
		<g transform="matrix( 0.14117431640625, 0, 0, 0.14117431640625, 88.65,17.6) ">
			<g transform="matrix( 1, 0, 0, 1, 0,0) ">
				<g>
					<g id="letter_34_Layer1_0_FILL">
						<path class="st0" d="M-95.1-44.5c-4.5,4.3-6.9,9.5-7.2,15.7c-2.6,82.1,0.7,127.8,10,136.9h0.1c7,15,40.3,20.8,100,17.4
							c6.2-0.4,11.4-2.9,15.5-7.6c4.1-4.6,6-10.1,5.7-16.3c-0.4-6.2-2.9-11.3-7.6-15.5c-4.6-4.1-10-6-16.2-5.7
							c-35.9,2.1-56.3,2.4-61.2,0.8c-1.2-3-1.9-10.6-2.3-22.9C-49.1,58.7-42,58.9-37,59c6.2,0.1,11.5-1.9,16.1-6.3
							c4.5-4.3,6.8-9.5,7-15.7c0.2-6.2-1.9-11.5-6.2-16.1c-4.3-4.5-9.5-6.8-15.7-7c-5.2-0.1-12.7-0.3-22.4-0.5
							c0.2-12,0.6-25.7,1-40.9C-57-33.7-59-39-63.3-43.6c-4.3-4.5-9.5-6.9-15.7-7.2C-85.2-50.7-90.5-48.7-95.1-44.5z"/>
					</g>
				</g>
			</g>
		</g>
	</g>
</g>
</svg>
