<?xml version="1.0" encoding="utf-8"?>
<!-- Generator: Adobe Illustrator 27.5.0, SVG Export Plug-In . SVG Version: 6.00 Build 0)  -->
<svg version="1.1" id="Layer_1" xmlns="http://www.w3.org/2000/svg" xmlns:xlink="http://www.w3.org/1999/xlink" x="0px" y="0px"
	 viewBox="0 0 1200 1250" style="enable-background:new 0 0 1200 1000;" xml:space="preserve">
<style type="text/css">
	.st0{fill:#FFFFFF;}
</style>
<g id="Layer_2_00000049931986733858041500000006613939321848058272_">
	<g transform="matrix( 1.29949951171875, 0, 0, 1.29949951171875, -600,125) ">
		<g transform="matrix( -0.1000213623046875, 0.09698486328125, 0.1081390380859375, 0.11151123046875, -29.7,-56) ">
			<g transform="matrix( 1, 0, 0, 1, 0,0) ">
				<g>
					<g id="letter_47_Layer1_0_FILL">
						<path class="st0" d="M-2064.4,4493.1c-5.2,18.9-8.4,41.3-9.7,67.1c-1,21.8-1.7,32.9-2.1,33.3c-0.6,0.6-1.3,1.2-1.9,1.7
							l0,2665.5c1.1,52.7,21.2,89.6,60.2,110.7c29.4,15.9,73.4,23.9,132.2,24.1c15.3,0,126.3,0.4,332.8,1.1
							c199.5,0.7,312.9,0.9,340.3,0.6c65.9-0.9,109.7-31.7,131.3-92.4c6.9-19.1,11.1-40.3,12.7-63.6c0.4-19.9,0.6-30.4,0.6-31.4
							l0-2594.8c-0.1-0.3-0.1-11.6,0.2-34c-0.7-26.9-3.6-51.5-8.6-73.7c-16.2-71.2-51.5-107.6-106-109.2c-0.2,0-0.4,0-0.6,0
							c-8.6-0.2-16.2-0.5-22.8-0.6l-740.8,0C-2007.8,4397.3-2047.1,4429.1-2064.4,4493.1z"/>
					</g>
				</g>
			</g>
		</g>
		<g transform="matrix( -0.10992431640625, 0.1065673828125, 0.037384033203125, 0.0385589599609375, 6.15,-82.4) ">
			<g transform="matrix( 1, 0, 0, 1, 0,0) ">
				<g>
					<g id="letter_47_Layer1_0_FILL_00000047756583110805768510000007510778078953781936_">
						<path class="st0" d="M-2863.7,16333.8c-5.2,18.9-8.4,41.3-9.7,67.1c-1,21.8-1.7,32.9-2.1,33.3c-0.6,0.6-1.3,1.2-1.9,1.7
							l0,2665.5c1.1,52.7,21.2,89.6,60.2,110.7c29.4,15.9,73.4,23.9,132.2,24.1c15.3,0,126.3,0.4,332.8,1.1
							c199.5,0.7,312.9,0.9,340.3,0.6c65.9-0.9,109.7-31.7,131.4-92.4c6.9-19.1,11.1-40.3,12.7-63.6c0.4-19.9,0.6-30.4,0.6-31.4
							l0-2594.7c-0.1-0.3-0.1-11.6,0.2-34c-0.7-26.9-3.6-51.5-8.6-73.7c-16.2-71.2-51.5-107.6-106-109.2c-0.2,0-0.4,0-0.6,0
							c-8.6-0.2-16.2-0.5-22.8-0.6l-740.8,0C-2807,16238-2846.3,16269.9-2863.7,16333.8z"/>
					</g>
				</g>
			</g>
		</g>
		<g transform="matrix( 0.1000213623046875, 0.09698486328125, -0.1081390380859375, 0.11151123046875, 33.3,-56) ">
			<g transform="matrix( 1, 0, 0, 1, 0,0) ">
				<g>
					<g id="letter_47_Layer1_0_FILL_00000101806019756865314230000004258178521411326634_">
						<path class="st0" d="M7506.6-3831.2c-5.2,18.9-8.4,41.3-9.7,67.1c-1,21.8-1.7,32.9-2.1,33.3c-0.6,0.6-1.3,1.2-1.9,1.7l0,2665.5
							c1.1,52.7,21.2,89.6,60.2,110.7c29.4,15.9,73.4,23.9,132.2,24.1c15.3,0,126.3,0.4,332.8,1.1c199.5,0.7,312.9,0.9,340.3,0.6
							c65.9-0.9,109.7-31.7,131.3-92.4c6.9-19.1,11.1-40.3,12.7-63.6c0.4-19.9,0.6-30.4,0.6-31.4l0-2594.8c-0.1-0.3-0.1-11.6,0.2-34
							c-0.7-26.9-3.6-51.5-8.6-73.7c-16.2-71.2-51.5-107.6-106-109.2c-0.2,0-0.4,0-0.6,0c-8.6-0.2-16.2-0.5-22.8-0.6l-740.8,0
							C7563.2-3927,7523.9-3895.1,7506.6-3831.2z"/>
					</g>
				</g>
			</g>
		</g>
	</g>
</g>
</svg>
